# xmcd CD database file
#
# Track frame offsets:
#	150
#	15354
#	30474
#	45901
#	60012
#	74459
#	89924
#	105544
#	121347
#	136364
#	151692
#	166933
#	187445
#	206632
#	226682
#	247665
#	268455
#	287690
#	298929
#	313415
#	326550
#
# Disc length: 4533 seconds
#
# Revision: 0
# Processed by: cddbd v1.5.2PL0 Copyright (c) Steve Scherf et al.
# Submitted via: CDex 1.70beta2
#
DISCID=2b11b315
DTITLE=Various Artist - Jazz Roads CD141 - Swing - Metronome/Esquire All-Stars Vol.3 (1939-46)
DYEAR=2006
DGENRE=Jazz
TTITLE0=All Star Band - Blue Lou 
TTITLE1=All Star Band - The Blues 
TTITLE2=Metronome All Star Band - King Porter Stomp 
TTITLE3=Metronome All Star Nine - All Star Strut 
TTITLE4=Metronome All Star Band - Bugle Call Rag 
TTITLE5=Metronome All Star Band - One O'Clock Jump 
TTITLE6=Metronome All Star Band - Royal Flush (1)
TTITLE7=Metronome All Star Band - Royal Flush (2)
TTITLE8=Metronome All Star Band - Dear Old Southland 
TTITLE9=Metronome All-Star Leaders - I Got Rhythm (1)
TTITLE10=Metronome All-Star Leaders - I Got Rhythm (2)
TTITLE11=Esquire All-American Award Winners - Long Long Journey 
TTITLE12=Esquire All-American Award Winners - Snafu 
TTITLE13=Esquire All-American Award Winners - The One That Got Away 
TTITLE14=Esquire All-American Award Winners - Gone With The Wind
TTITLE15=Metronome All Star Band - Look Out 
TTITLE16=Metronome All Star Band - Metronome All Out 
TTITLE17=Esquire All-American Award Winners - Indiana Winter
TTITLE18=Esquire All-American Award Winners - Indian Summer
TTITLE19=Esquire All-American Award Winners - Blow Me Down
TTITLE20=Esquire All-American Award Winners - Buckin' The Blues
EXTD=YEAR: 2006
EXTT0=
EXTT1=
EXTT2=
EXTT3=
EXTT4=
EXTT5=
EXTT6=
EXTT7=
EXTT8=
EXTT9=
EXTT10=
EXTT11=
EXTT12=
EXTT13=
EXTT14=
EXTT15=
EXTT16=
EXTT17=
EXTT18=
EXTT19=
EXTT20=
PLAYORDER=
